<svg width="16" height="15" viewBox="0 0 16 15" fill="none" xmlns="http://www.w3.org/2000/svg">
<path d="M13.2085 1.875V9.6875C13.2085 10.2677 12.978 10.8241 12.5678 11.2343C12.1576 11.6445 11.6012 11.875 11.021 11.875C10.4408 11.875 9.88444 11.6445 9.4742 11.2343C9.06396 10.8241 8.8335 10.2677 8.8335 9.6875C8.8335 9.10734 9.06396 8.55094 9.4742 8.1407C9.88444 7.73047 10.4408 7.5 11.021 7.5C11.3585 7.5 11.6772 7.575 11.9585 7.7125V4.04375L5.7085 5.375V10.9375C5.7085 11.5177 5.47803 12.0741 5.06779 12.4843C4.65756 12.8945 4.10116 13.125 3.521 13.125C2.94083 13.125 2.38444 12.8945 1.9742 12.4843C1.56396 12.0741 1.3335 11.5177 1.3335 10.9375C1.3335 10.3573 1.56396 9.80094 1.9742 9.3907C2.38444 8.98047 2.94083 8.75 3.521 8.75C3.8585 8.75 4.17725 8.825 4.4585 8.9625V3.75L13.2085 1.875Z" fill="#EE10B0"/>
</svg>
